<?xml version="1.0" standalone="no"?>
<!DOCTYPE svg PUBLIC "-//W3C//DTD SVG 20010904//EN"
 "http://www.w3.org/TR/2001/REC-SVG-20010904/DTD/svg10.dtd">
<svg version="1.0" xmlns="http://www.w3.org/2000/svg"
 width="700.000000pt" height="700.000000pt" viewBox="0 0 700.000000 700.000000"
 preserveAspectRatio="xMidYMid meet">
<metadata>
Created by potrace 1.14, written by Peter Selinger 2001-2017
</metadata>
<g transform="translate(0.000000,700.000000) scale(0.100000,-0.100000)"
fill="#000000" stroke="none">
<path d="M3220 6969 c-138 -13 -220 -23 -305 -39 -27 -6 -68 -13 -90 -16 -44
-6 -267 -62 -355 -89 -204 -61 -543 -208 -700 -303 -19 -12 -48 -29 -65 -38
-61 -34 -203 -130 -300 -203 -323 -242 -622 -558 -826 -876 -74 -115 -83 -129
-95 -150 -6 -11 -20 -36 -32 -55 -25 -43 -119 -231 -160 -320 -74 -163 -175
-472 -208 -635 -14 -67 -35 -185 -40 -215 -19 -129 -24 -164 -31 -240 -15
-162 -8 -591 12 -730 2 -14 7 -50 10 -80 4 -30 9 -64 11 -75 4 -21 32 -164 40
-205 11 -54 68 -251 101 -350 118 -350 336 -751 559 -1029 193 -242 399 -445
623 -616 71 -54 221 -161 262 -185 201 -120 404 -224 549 -282 192 -76 498
-168 640 -193 249 -42 268 -44 690 -44 229 0 434 4 455 9 22 4 60 11 85 14 39
5 113 18 175 30 59 12 270 68 333 89 39 14 72 23 72 20 0 -3 6 -1 13 4 6 6 30
16 52 23 130 40 435 185 600 285 82 49 249 162 297 199 14 12 41 32 59 46 465
353 873 895 1094 1450 20 52 41 104 46 115 20 48 80 250 107 360 27 109 36
149 48 225 2 14 6 34 8 45 3 11 8 47 12 80 3 33 8 62 9 65 18 31 26 557 12
725 -44 497 -196 984 -448 1432 -50 89 -192 302 -263 393 -151 196 -406 459
-562 580 -11 8 -33 26 -50 40 -17 14 -43 34 -58 45 -16 11 -40 29 -55 41 -33
26 -208 140 -286 186 -107 64 -267 144 -395 197 -69 29 -134 56 -145 61 -121
53 -517 156 -672 175 -26 4 -55 8 -63 10 -8 2 -46 7 -85 11 -38 3 -79 8 -90
11 -37 8 -509 10 -595 2z"/>
</g>
</svg>
